<?xml version="1.0" standalone="no"?><!DOCTYPE svg PUBLIC "-//W3C//DTD SVG 1.1//EN" "http://www.w3.org/Graphics/SVG/1.1/DTD/svg11.dtd"><svg t="1709022428210" class="icon" viewBox="0 0 1024 1024" version="1.1" xmlns="http://www.w3.org/2000/svg" p-id="1132" xmlns:xlink="http://www.w3.org/1999/xlink" width="200" height="200"><path d="M766.3616 927.8976H256.4608a86.6816 86.6816 0 0 1-86.5792-86.528v-290.816h-25.1904A74.1376 74.1376 0 0 1 91.1872 424.96a25.6 25.6 0 0 1 2.0992-1.9968l365.7728-315.0848a73.472 73.472 0 0 1 52.3776-21.6576 73.4208 73.4208 0 0 1 52.3264 21.6576l365.7728 315.2384a25.6 25.6 0 0 1 2.304 1.8432 74.1376 74.1376 0 0 1-53.504 125.44h-56.1152a30.72 30.72 0 0 1 0-61.44h55.9104a12.1856 12.1856 0 0 0 11.6736-7.68 12.032 12.032 0 0 0-1.792-12.9536L522.7008 153.6c-0.7168-0.6656-1.4336-1.3312-2.0992-2.048a12.7488 12.7488 0 0 0-9.1648-3.8912 12.5952 12.5952 0 0 0-9.1648 3.8912c-0.7168 0.7168-1.3824 1.3824-2.1504 2.048L134.8096 468.4288A12.032 12.032 0 0 0 133.12 481.28a12.1856 12.1856 0 0 0 11.6736 7.7312h55.808a30.72 30.72 0 0 1 30.72 30.72v321.536a25.1904 25.1904 0 0 0 25.1392 25.088h509.9008a25.1392 25.1392 0 0 0 25.1392-25.088v-168.2432a30.72 30.72 0 0 1 61.44 0v168.3456a86.6816 86.6816 0 0 1-86.5792 86.528z" fill="#474747" p-id="1133"></path><path d="M636.0064 656.2304H542.72v-41.5232h93.4912a30.72 30.72 0 0 0 0-61.44h-64.256l77.7728-76.8a30.72 30.72 0 1 0-43.1616-43.7248l-96.0512 94.9248-101.888-95.488a30.72 30.72 0 1 0-41.984 44.8l81.3568 76.288H387.6352a30.72 30.72 0 1 0 0 61.44H481.28v41.5232H387.6352a30.72 30.72 0 0 0 0 61.44H481.28v59.4944a30.72 30.72 0 0 0 61.44 0v-59.4944h93.4912a30.72 30.72 0 0 0 0-61.44z" fill="#4F95FC" p-id="1134"></path></svg>